<mxfile host="app.diagrams.net" modified="2024-07-02T07:17:48.060Z" agent="Mozilla/5.0 (Windows NT 10.0; Win64; x64) AppleWebKit/537.36 (KHTML, like Gecko) Chrome/126.0.0.0 Safari/537.36" version="24.6.4" etag="pfDxJfw_35M5h482zo-R" type="github">
  <diagram name="Halaman-1" id="zG11E14rg-O_UyG3sB_A">
    <mxGraphModel>
      <root>
        <mxCell id="0" />
        <mxCell id="1" parent="0" />
      </root>
    </mxGraphModel>
  </diagram>
</mxfile>
